<svg width="550" height="381" viewBox="0 0 550 381" fill="none" xmlns="http://www.w3.org/2000/svg">
<path opacity="0.1" d="M540.678 302.987C527.055 330.254 499.379 348.487 470.708 360.511C447.753 370.074 423.488 376.355 398.672 379.156C393.919 379.704 389.151 380.128 384.367 380.43C372.143 381.203 359.88 381.19 347.659 380.39C340.307 379.916 332.981 379.158 325.681 378.117C300.315 374.527 275.585 367.543 252.198 357.362C245.448 354.413 238.835 351.195 232.359 347.706C221.542 341.89 211.178 335.316 201.349 328.035C199.175 326.423 197.027 324.777 194.907 323.095L194.035 322.404C192.369 321.07 190.717 319.707 189.04 318.384C186.252 316.119 183.293 314.06 180.187 312.225C179.977 312.106 179.767 311.986 179.551 311.872C178.977 311.549 178.392 311.245 177.797 310.957C176.571 310.357 175.315 309.819 174.032 309.345C168.108 307.156 161.764 306.36 155.332 306.494C154.265 306.494 153.198 306.564 152.127 306.634C150.629 306.733 149.126 306.882 147.628 307.071L147.074 307.146C142.302 307.801 137.583 308.784 132.954 310.086C125.805 312.076 118.783 314.563 111.715 316.807C108.715 317.767 105.709 318.683 102.678 319.503L102.011 319.682C97.7001 320.859 93.3115 321.75 88.8759 322.349C78.7962 323.599 68.5585 322.799 58.8149 320.001L58.4764 319.906L57.8507 319.727L56.9941 319.469C55.558 319.031 54.1339 318.552 52.7217 318.031L51.8651 317.712C50.4974 317.202 49.1587 316.653 47.8491 316.066L46.9926 315.688C45.6249 315.071 44.2862 314.419 42.9766 313.733C42.5047 313.494 42.038 313.235 41.5764 312.991C40.1813 312.235 38.8136 311.443 37.4732 310.613C36.0508 309.735 34.6591 308.817 33.2982 307.862C32.6691 307.425 32.0467 306.975 31.4313 306.514C27.8833 303.882 24.5608 300.975 21.4964 297.823C21.3272 297.659 21.1682 297.49 21.0092 297.326C20.1937 296.47 19.3935 295.599 18.6191 294.709C18.3318 294.381 18.0446 294.052 17.7625 293.714C16.8427 292.626 15.9554 291.513 15.1006 290.376C14.9724 290.212 14.8493 290.042 14.7262 289.878C11.2217 285.178 8.31642 280.083 6.07357 274.705C6.00176 274.541 5.93508 274.372 5.87354 274.208C5.18967 272.5 4.56564 270.763 4.00146 268.999C3.77065 268.263 3.5501 267.507 3.3552 266.77C3.28853 266.551 3.22698 266.328 3.17056 266.109C0.33936 255.298 0.0162354 244.06 0.0162354 232.887C0.0162354 231.583 0.0162354 230.282 0.0162354 228.982C0.0982991 210.908 0.385521 192.526 3.13466 174.701C3.13466 174.577 3.17056 174.452 3.19108 174.333C4.1112 168.332 5.36276 162.384 6.94037 156.513C8.59148 150.353 10.7016 144.318 13.2541 138.455C19.5782 124.028 28.7745 110.899 38.9863 98.7307C51.2958 84.0898 65.4005 70.5782 81.1106 59.4296C83.3674 57.8277 85.6549 56.2723 87.9732 54.7632L89.0451 54.0817C89.4196 53.8379 89.794 53.5842 90.1684 53.3703C90.9377 52.8728 91.7071 52.4052 92.4867 51.9326L93.3586 51.4052L95.0204 50.4103L95.5333 50.1267L96.4206 49.6292L97.2977 49.1317C98.3235 48.5447 99.3612 47.9709 100.411 47.4104C104.894 44.986 109.482 42.7706 114.177 40.7641C115.562 40.1704 116.955 39.5983 118.357 39.0478C124.722 36.5334 131.26 34.4538 137.924 32.8243C140.386 32.2206 142.864 31.69 145.356 31.2323C148.297 30.6818 151.253 30.2257 154.224 29.8642C158.953 29.2872 163.708 28.9435 168.473 28.8344C201.975 28.0434 235.816 38.6199 262.071 58.8923C272.535 66.9714 281.936 76.538 293.686 82.7317C303.944 88.1244 315.951 90.3581 326.938 86.1146C336.016 82.6073 341.925 80.8661 352.121 81.3984C373.22 82.5512 394.021 86.7704 413.828 93.9151C414.628 94.1986 415.428 94.4922 416.223 94.7857C467.877 113.964 512.289 152.046 535.359 200.983C535.968 202.277 536.561 203.58 537.139 204.893C550.9 236.061 555.865 272.601 540.678 302.987Z" fill="#6C63FF"/>
<path opacity="0.1" d="M102.662 130.888V319.513L101.995 319.693C97.6838 320.869 93.2953 321.76 88.8596 322.359C78.7799 323.609 68.5423 322.809 58.7987 320.011L58.4602 319.916L57.8344 319.737L56.9779 319.479C55.5418 319.041 54.1176 318.562 52.7054 318.041L51.8489 317.723C50.4812 317.212 49.1425 316.663 47.8329 316.076L46.9764 315.698C45.6086 315.081 44.27 314.429 42.9604 313.743C42.4885 313.504 42.0218 313.245 41.5602 313.001C40.1651 312.245 38.7973 311.453 37.457 310.623C36.0345 309.745 34.6429 308.828 33.282 307.872C32.6528 307.435 32.0305 306.985 31.415 306.524C27.867 303.892 24.5446 300.986 21.4802 297.833C21.3109 297.669 21.1519 297.5 20.9929 297.336C20.1774 296.48 19.3773 295.609 18.6028 294.719C18.3156 294.391 18.0284 294.062 17.7463 293.724C16.8265 292.636 15.9392 291.523 15.0843 290.386C14.9561 290.222 14.833 290.053 14.7099 289.888C11.2055 285.188 8.30018 280.093 6.05733 274.715C5.98552 274.551 5.91885 274.382 5.8573 274.218C5.17344 272.51 4.54941 270.774 3.98522 269.009C3.75442 268.273 3.53387 267.517 3.33897 266.78C3.27229 266.561 3.21074 266.338 3.15432 266.119C0.323125 255.308 0 244.07 0 232.897C0 231.593 0 230.292 0 228.992C0.0820637 210.918 0.369286 192.536 3.11842 174.711C3.11842 174.587 3.15432 174.463 3.17484 174.343C4.09496 168.342 5.34652 162.394 6.92413 156.523H59.3013V130.888H69.7439V110.297H92.2191V130.888H102.662Z" fill="#6C63FF"/>
<path opacity="0.1" d="M540.676 302.987C527.054 330.254 499.378 348.487 470.707 360.511C447.751 370.074 423.486 376.355 398.67 379.157C393.917 379.704 389.149 380.128 384.365 380.43C372.142 381.203 359.879 381.19 347.657 380.39C340.306 379.916 332.98 379.158 325.68 378.117C300.314 374.528 275.584 367.543 252.197 357.362C245.447 354.414 238.834 351.195 232.358 347.706C221.541 341.891 211.177 335.316 201.348 328.035C199.173 326.424 197.026 324.777 194.906 323.095L194.034 322.404C192.367 321.071 190.715 319.708 189.038 318.384C186.251 316.119 183.291 314.06 180.186 312.225C179.975 312.106 179.765 311.987 179.55 311.872C178.975 311.549 178.391 311.245 177.796 310.957C176.57 310.357 175.313 309.819 174.031 309.345V232.18H269.22V249.359H310.995V123.704H360.167V173.95H384.488V144.201H404.584V112.422H413.816V93.9152C414.616 94.1988 415.416 94.4923 416.211 94.7858V112.422H425.197V144.221H445.277V173.97H474.887V287.311H521.95V204.884H537.117C550.898 236.061 555.863 272.601 540.676 302.987Z" fill="#6C63FF"/>
<path opacity="0.1" d="M347.667 142.614H325.69V163.931H347.667V142.614Z" fill="#6C63FF"/>
<path opacity="0.1" d="M347.667 186.8H325.69V208.117H347.667V186.8Z" fill="#6C63FF"/>
<path opacity="0.1" d="M347.667 230.992H325.69V252.309H347.667V230.992Z" fill="#6C63FF"/>
<path opacity="0.1" d="M347.667 275.183H325.69V296.5H347.667V275.183Z" fill="#6C63FF"/>
<path opacity="0.1" d="M347.667 319.369H325.69V340.686H347.667V319.369Z" fill="#6C63FF"/>
<path opacity="0.1" d="M347.667 363.551V380.385C340.316 379.911 332.99 379.153 325.69 378.112V363.551H347.667Z" fill="#6C63FF"/>
<path opacity="0.1" d="M258.208 259.731H181.278V269.387H258.208V259.731Z" fill="#6C63FF"/>
<path opacity="0.1" d="M258.208 289.058H181.278V298.714H258.208V289.058Z" fill="#6C63FF"/>
<path opacity="0.1" d="M258.208 318.384V328.035H201.358C199.183 326.424 197.036 324.777 194.916 323.095L194.044 322.404C192.377 321.071 190.726 319.708 189.049 318.384H258.208Z" fill="#6C63FF"/>
<path opacity="0.1" d="M258.208 347.706V357.362H252.207C245.457 354.414 238.844 351.195 232.368 347.706H258.208Z" fill="#6C63FF"/>
<path opacity="0.1" d="M398.68 200.337H384.376V214.211H398.68V200.337Z" fill="#6C63FF"/>
<path opacity="0.1" d="M88.8897 135.674H74.585V149.549H88.8897V135.674Z" fill="#6C63FF"/>
<path opacity="0.1" d="M88.8897 167.911H74.585V181.785H88.8897V167.911Z" fill="#6C63FF"/>
<path opacity="0.1" d="M88.8897 200.143H74.585V214.017H88.8897V200.143Z" fill="#6C63FF"/>
<path opacity="0.1" d="M88.8897 232.379H74.585V246.254H88.8897V232.379Z" fill="#6C63FF"/>
<path opacity="0.1" d="M88.8897 264.616H74.585V278.491H88.8897V264.616Z" fill="#6C63FF"/>
<path opacity="0.1" d="M88.8897 296.848H74.585V310.723H88.8897V296.848Z" fill="#6C63FF"/>
<path opacity="0.1" d="M453.299 200.337H438.994V214.211H453.299V200.337Z" fill="#6C63FF"/>
<path opacity="0.1" d="M398.68 234.563H384.376V248.438H398.68V234.563Z" fill="#6C63FF"/>
<path opacity="0.1" d="M453.299 234.563H438.994V248.438H453.299V234.563Z" fill="#6C63FF"/>
<path opacity="0.1" d="M398.68 268.795H384.376V282.67H398.68V268.795Z" fill="#6C63FF"/>
<path opacity="0.1" d="M453.299 268.795H438.994V282.67H453.299V268.795Z" fill="#6C63FF"/>
<path opacity="0.1" d="M398.68 303.027H384.376V316.902H398.68V303.027Z" fill="#6C63FF"/>
<path opacity="0.1" d="M453.299 303.027H438.994V316.902H453.299V303.027Z" fill="#6C63FF"/>
<path opacity="0.1" d="M398.68 337.254H384.376V351.128H398.68V337.254Z" fill="#6C63FF"/>
<path opacity="0.1" d="M453.299 337.254H438.994V351.128H453.299V337.254Z" fill="#6C63FF"/>
<path opacity="0.1" d="M384.376 380.43V371.48H398.68V379.157L384.376 380.43Z" fill="#6C63FF"/>
<path opacity="0.1" d="M210.262 105.442C210.262 105.442 198.035 104.725 199.491 113.033C199.416 113.456 199.481 113.89 199.677 114.274C199.872 114.658 200.188 114.973 200.578 115.173C200.578 115.173 200.578 114.556 201.83 114.765C202.269 114.835 202.715 114.855 203.158 114.824C203.758 114.786 204.329 114.559 204.784 114.178C204.784 114.178 208.221 112.8 209.559 107.352C209.559 107.352 210.544 106.163 210.508 105.86L208.457 106.715C208.457 106.715 209.164 108.158 208.61 109.357C208.61 109.357 208.544 106.77 208.144 106.83C208.067 106.83 207.072 107.327 207.072 107.327C207.072 107.327 208.287 109.844 207.369 111.67C207.369 111.67 207.718 108.576 206.697 107.511L205.21 108.342C205.21 108.342 206.631 110.939 205.666 113.058C205.666 113.058 205.918 109.81 204.907 108.546L203.589 109.541C203.589 109.541 204.923 112.098 204.102 113.859C204.102 113.859 203.994 110.073 203.297 109.785C202.796 110.194 202.35 110.662 201.968 111.178C201.968 111.178 202.881 113.033 202.317 114.013C202.317 114.013 201.968 111.496 201.681 111.481C201.681 111.481 200.537 113.153 200.419 114.297C200.472 113.235 200.812 112.206 201.404 111.312C200.743 111.433 200.134 111.739 199.65 112.193C199.65 112.193 199.83 111.014 201.702 110.909C201.702 110.909 202.651 109.645 202.907 109.566C202.907 109.566 201.055 109.417 199.932 109.899C199.932 109.899 200.922 108.785 203.246 109.292L204.543 108.262C204.543 108.262 202.107 107.939 201.076 108.297C201.076 108.297 202.261 107.302 204.892 108.029L206.308 107.208C205.22 106.977 204.106 106.883 202.994 106.929C202.994 106.929 204.297 106.248 206.723 106.989L207.749 106.546C207.749 106.546 206.21 106.258 205.784 106.213C205.359 106.168 205.313 106.049 205.313 106.049C206.276 105.893 207.265 106 208.169 106.357C208.169 106.357 210.298 105.571 210.262 105.442Z" fill="#6C63FF"/>
<path opacity="0.1" d="M178.165 145.872C178.165 145.872 173.985 157.036 182.612 158.056C183.007 158.244 183.453 158.307 183.887 158.234C184.321 158.162 184.72 157.958 185.027 157.653C185.027 157.653 184.427 157.459 184.981 156.369C185.175 155.982 185.323 155.575 185.422 155.155C185.552 154.585 185.487 153.99 185.238 153.459C185.238 153.459 184.853 149.872 179.847 147.081C179.847 147.081 178.955 145.822 178.642 145.773L178.898 147.937C178.898 147.937 180.524 147.688 181.555 148.544C181.555 148.544 178.991 147.872 178.924 148.26C178.924 148.335 179.114 149.399 179.114 149.399C179.114 149.399 181.945 148.981 183.489 150.355C183.489 150.355 180.524 149.151 179.185 149.802L179.586 151.384C179.586 151.384 182.555 150.807 184.376 152.3C184.376 152.3 181.237 151.15 179.698 151.728L180.309 153.22C180.309 153.22 183.217 152.723 184.725 153.961C184.725 153.961 180.95 152.966 180.473 153.553C180.736 154.133 181.07 154.679 181.468 155.18C181.468 155.18 183.566 154.862 184.371 155.678C184.371 155.678 181.781 155.285 181.688 155.543C181.688 155.543 183.017 157.085 184.114 157.533C183.084 157.179 182.166 156.571 181.452 155.767C181.385 156.418 181.515 157.073 181.827 157.653C181.827 157.653 180.709 157.155 181.134 155.389C181.134 155.389 180.15 154.15 180.15 153.897C180.15 153.897 179.473 155.573 179.637 156.757C179.637 156.757 178.816 155.518 179.975 153.504L179.329 152.011C179.329 152.011 178.303 154.185 178.375 155.25C178.375 155.25 177.739 153.862 179.196 151.618L178.791 150.071C178.254 151.011 177.845 152.014 177.575 153.056C177.575 153.056 177.267 151.648 178.688 149.603L178.539 148.539C178.539 148.539 177.821 149.872 177.652 150.275C177.483 150.678 177.354 150.663 177.354 150.663C177.473 149.722 177.858 148.832 178.467 148.091C178.467 148.091 178.303 145.872 178.165 145.872Z" fill="#6C63FF"/>
<path opacity="0.1" d="M259.218 136.46C259.218 136.46 255.043 147.643 263.665 148.638C264.061 148.827 264.509 148.888 264.944 148.815C265.378 148.742 265.778 148.537 266.086 148.23C266.086 148.23 265.481 148.036 266.04 146.952C266.235 146.564 266.382 146.155 266.476 145.733C266.607 145.164 266.544 144.568 266.296 144.037C266.296 144.037 265.911 140.45 260.906 137.659C260.906 137.659 260.008 136.405 259.695 136.355L259.957 138.514C259.957 138.514 261.583 138.271 262.614 139.126C262.614 139.126 260.049 138.455 259.977 138.838C259.977 138.917 260.167 139.977 260.167 139.977C260.167 139.977 262.998 139.564 264.547 140.932C264.547 140.932 261.583 139.733 260.239 140.38L260.644 141.967C260.644 141.967 263.614 141.385 265.434 142.882C265.434 142.882 262.29 141.728 260.752 142.305L261.362 143.798C261.362 143.798 264.27 143.3 265.778 144.539C265.778 144.539 262.008 143.544 261.526 144.136C261.797 144.718 262.142 145.264 262.552 145.763C262.552 145.763 264.645 145.439 265.455 146.26C265.455 146.26 262.865 145.867 262.772 146.131C262.772 146.131 264.096 147.668 265.193 148.121C264.163 147.769 263.247 147.159 262.537 146.355C262.469 147.005 262.597 147.66 262.906 148.24C262.906 148.24 261.793 147.743 262.219 145.982C262.219 145.982 261.234 144.738 261.229 144.489C261.229 144.489 260.557 146.171 260.716 147.35C260.716 147.35 259.895 146.116 261.054 144.096L260.408 142.604C260.408 142.604 259.382 144.778 259.454 145.837C259.454 145.837 258.818 144.454 260.275 142.211L259.864 140.659C259.328 141.598 258.919 142.602 258.649 143.644C258.649 143.644 258.346 142.236 259.767 140.191L259.618 139.126C259.618 139.126 258.9 140.46 258.726 140.863C258.551 141.266 258.428 141.251 258.428 141.251C258.55 140.31 258.937 139.42 259.546 138.679C259.546 138.679 259.362 136.465 259.218 136.46Z" fill="#6C63FF"/>
<path opacity="0.1" d="M143.354 227.738C143.354 227.738 139.174 238.906 147.801 239.926C148.197 240.115 148.643 240.177 149.078 240.104C149.512 240.03 149.911 239.825 150.217 239.518C150.217 239.518 149.617 239.324 150.171 238.24C150.368 237.852 150.516 237.443 150.612 237.021C150.744 236.451 150.679 235.855 150.427 235.325C150.427 235.325 150.043 231.738 145.037 228.952C145.037 228.952 144.144 227.693 143.831 227.643L144.088 229.803C144.088 229.803 145.719 229.559 146.745 230.414C146.745 230.414 144.18 229.743 144.113 230.126C144.113 230.205 144.303 231.265 144.303 231.265C144.303 231.265 147.134 230.852 148.678 232.22C148.678 232.22 145.714 231.021 144.375 231.668L144.775 233.255C144.775 233.255 147.745 232.673 149.566 234.17C149.566 234.17 146.427 233.016 144.888 233.593L145.498 235.086C145.498 235.086 148.406 234.588 149.914 235.827C149.914 235.827 146.145 234.832 145.662 235.424C145.925 236.003 146.259 236.55 146.657 237.051C146.657 237.051 148.755 236.727 149.566 237.548C149.566 237.548 146.97 237.155 146.878 237.419C146.878 237.419 148.206 238.956 149.304 239.409C148.273 239.058 147.355 238.451 146.642 237.648C146.574 238.297 146.704 238.951 147.016 239.528C147.016 239.528 145.898 239.031 146.324 237.27C146.324 237.27 145.344 236.026 145.339 235.777C145.339 235.777 144.662 237.459 144.826 238.638C144.826 238.638 144.006 237.404 145.165 235.384L144.519 233.892C144.519 233.892 143.493 236.066 143.57 237.125C143.57 237.125 142.934 235.742 144.39 233.499L143.98 231.952C143.442 232.891 143.034 233.894 142.765 234.937C142.765 234.937 142.457 233.524 143.878 231.484L143.729 230.414C143.729 230.414 143.011 231.748 142.841 232.151C142.672 232.554 142.544 232.539 142.544 232.539C142.663 231.597 143.05 230.706 143.662 229.967C143.662 229.967 143.493 227.738 143.354 227.738Z" fill="#6C63FF"/>
<path opacity="0.1" d="M126.767 122.476C126.767 122.476 122.592 133.639 131.214 134.659C131.61 134.847 132.057 134.909 132.492 134.837C132.926 134.765 133.326 134.561 133.635 134.256C133.635 134.256 133.03 134.062 133.589 132.973C133.782 132.584 133.929 132.175 134.025 131.754C134.156 131.186 134.093 130.592 133.845 130.062C133.845 130.062 133.461 126.475 128.45 123.685C128.45 123.685 127.557 122.426 127.244 122.376L127.506 124.54C127.506 124.54 129.132 124.291 130.158 125.147C130.158 125.147 127.593 124.476 127.526 124.864C127.526 124.938 127.716 126.003 127.716 126.003C127.716 126.003 130.547 125.585 132.096 126.958C132.096 126.958 129.132 125.754 127.788 126.406L128.188 127.988C128.188 127.988 131.158 127.406 132.984 128.903C132.984 128.903 129.84 127.749 128.301 128.331L128.911 129.823C128.911 129.823 131.819 129.326 133.327 130.57C133.327 130.57 129.557 129.575 129.075 130.162C129.338 130.741 129.672 131.287 130.07 131.789C130.07 131.789 132.168 131.47 132.978 132.286C132.978 132.286 130.388 131.893 130.296 132.152C130.296 132.152 131.619 133.694 132.717 134.142C131.687 133.787 130.77 133.178 130.055 132.376C129.987 133.026 130.117 133.682 130.429 134.261C130.429 134.261 129.311 133.764 129.742 131.997C129.742 131.997 128.757 130.759 128.752 130.505C128.752 130.505 128.08 132.182 128.239 133.366C128.239 133.366 127.414 132.127 128.578 130.112L127.926 128.62C127.926 128.62 126.901 130.794 126.978 131.858C126.978 131.858 126.342 130.47 127.798 128.227L127.388 126.679C126.851 127.619 126.443 128.622 126.172 129.664C126.172 129.664 125.87 128.256 127.285 126.212L127.142 125.147C127.142 125.147 126.419 126.48 126.249 126.878C126.08 127.276 125.952 127.271 125.952 127.271C126.07 126.33 126.458 125.439 127.07 124.699C127.07 124.699 126.911 122.476 126.767 122.476Z" fill="#6C63FF"/>
<path opacity="0.1" d="M157.767 183.268C157.767 183.268 160.993 194.71 168.646 190.73C169.08 190.663 169.482 190.464 169.794 190.162C170.105 189.86 170.31 189.471 170.379 189.049C170.379 189.049 169.774 189.228 169.584 188.029C169.512 187.603 169.388 187.188 169.215 186.79C168.987 186.25 168.582 185.799 168.061 185.507C168.061 185.507 165.614 182.79 159.854 183.308C159.854 183.308 158.377 182.785 158.09 182.92L159.588 184.537C159.588 184.537 160.773 183.427 162.121 183.542C162.121 183.542 159.613 184.437 159.798 184.78C159.839 184.85 160.629 185.606 160.629 185.606C160.629 185.606 162.681 183.681 164.773 183.935C164.773 183.935 161.639 184.611 160.932 185.895L162.198 186.964C162.198 186.964 164.281 184.83 166.661 185.029C166.661 185.029 163.404 185.845 162.491 187.178L163.886 188.069C163.886 188.069 165.937 186.024 167.938 186.208C167.938 186.208 164.276 187.517 164.219 188.253C164.779 188.58 165.379 188.839 166.004 189.024C166.004 189.024 167.543 187.591 168.666 187.795C168.666 187.795 166.312 188.924 166.394 189.188C166.394 189.188 168.394 189.686 169.548 189.447C168.497 189.736 167.387 189.753 166.327 189.497C166.657 190.066 167.153 190.528 167.753 190.825C167.753 190.825 166.543 191.039 165.845 189.362C165.845 189.362 164.306 188.9 164.142 188.691C164.142 188.691 164.594 190.442 165.425 191.317C165.425 191.317 164.019 190.765 163.768 188.467L162.347 187.606C162.347 187.606 162.814 189.949 163.491 190.78C163.491 190.78 162.147 190.004 162.004 187.357L160.752 186.323C160.874 187.396 161.139 188.45 161.542 189.457C161.542 189.457 160.46 188.462 160.403 186.014L159.649 185.223C159.649 185.223 159.854 186.716 159.952 187.138C160.049 187.561 159.952 187.636 159.952 187.636C159.49 186.8 159.277 185.856 159.336 184.91C159.336 184.91 157.885 183.193 157.767 183.268Z" fill="#6C63FF"/>
<path opacity="0.1" d="M245.288 193.486C245.288 193.486 248.514 204.928 256.161 200.948C256.597 200.883 257.001 200.685 257.313 200.383C257.626 200.081 257.831 199.69 257.9 199.267C257.9 199.267 257.29 199.446 257.1 198.272C257.032 197.846 256.909 197.43 256.736 197.033C256.505 196.494 256.097 196.043 255.577 195.75C255.577 195.75 253.13 193.034 247.37 193.556C247.37 193.556 245.893 193.029 245.611 193.163L247.103 194.78C247.103 194.78 248.288 193.67 249.637 193.785C249.637 193.785 247.129 194.68 247.319 195.023C247.355 195.093 248.15 195.849 248.15 195.849C248.15 195.849 250.201 193.924 252.294 194.178C252.294 194.178 249.155 194.854 248.447 196.138L249.719 197.207C249.719 197.207 251.771 195.073 254.176 195.272C254.176 195.272 250.925 196.088 250.012 197.421L251.407 198.312C251.407 198.312 253.458 196.267 255.453 196.451C255.453 196.451 251.791 197.76 251.74 198.496C252.298 198.823 252.896 199.082 253.52 199.267C253.52 199.267 255.059 197.834 256.182 198.038C256.182 198.038 253.833 199.168 253.91 199.431C253.91 199.431 255.91 199.929 257.069 199.69C256.016 199.979 254.904 199.996 253.843 199.74C254.175 200.308 254.67 200.769 255.269 201.068C255.269 201.068 254.058 201.282 253.361 199.605C253.361 199.605 251.822 199.143 251.663 198.934C251.663 198.934 252.109 200.685 252.94 201.56C252.94 201.56 251.535 201.008 251.284 198.71L249.863 197.839C249.863 197.839 250.33 200.182 251.012 201.013C251.012 201.013 249.668 200.237 249.524 197.59L248.268 196.556C248.389 197.63 248.657 198.684 249.063 199.69C249.063 199.69 247.975 198.695 247.919 196.247L247.165 195.456C247.165 195.456 247.37 196.949 247.468 197.372C247.565 197.794 247.468 197.869 247.468 197.869C247.006 197.033 246.793 196.089 246.852 195.143C246.852 195.143 245.406 193.412 245.288 193.486Z" fill="#6C63FF"/>
<path d="M212.452 308.395C212.452 308.395 239.061 299.704 233.553 268.909L199.753 260.398L191.906 285.665L212.452 308.395Z" fill="#CED7E7"/>
<path opacity="0.1" d="M191.906 285.665L212.447 308.395C212.447 308.395 239.056 299.704 233.548 268.91L191.906 285.665Z" fill="black"/>
<path d="M80.0935 58.1662C80.0935 58.1662 83.6838 63.8325 88.5923 61.0018C93.5007 58.1712 88.7923 50.3507 88.7923 50.3507C88.7923 50.3507 79.3909 49.1021 80.0935 58.1662Z" fill="#FED253"/>
<path opacity="0.1" d="M88.5923 61.0017C88.0133 61.3651 87.3639 61.6099 86.6839 61.7211C86.0039 61.8323 85.3077 61.8076 84.6379 61.6484C82.8376 61.2057 81.4528 59.8625 80.7091 58.9819C80.4872 58.7239 80.2816 58.4531 80.0936 58.171C79.8423 54.9374 80.8783 53.0121 82.3144 51.8779C84.2891 50.3208 87.0228 50.2561 88.2025 50.3058C88.5667 50.3058 88.7769 50.3556 88.7769 50.3556L88.8744 50.5148C89.0129 50.7685 89.3155 51.3306 89.6386 52.0818C90.7362 54.5444 92.0441 59.0068 88.5923 61.0017Z" fill="black"/>
<path d="M215.068 267.462L233.532 268.91L267.896 269.183L240.821 301.52C240.821 301.52 232.229 301.972 230.46 303.146C228.691 304.32 203.846 303.694 203.846 303.694L199.835 287.117L215.068 267.462Z" fill="#FFA2A2"/>
<path opacity="0.05" d="M215.068 267.462L233.532 268.91L267.896 269.183L240.821 301.52C240.821 301.52 232.229 301.972 230.46 303.146C228.691 304.32 203.846 303.694 203.846 303.694L199.835 287.117L215.068 267.462Z" fill="black"/>
<path d="M196.393 180.522L200.686 187.586L201.62 199.904C201.62 199.904 204.61 210.406 206.851 213.485C209.093 216.565 210.026 224.718 210.026 224.718C210.026 224.718 210.959 232.325 212.078 233.952C213.196 235.578 214.693 247.384 214.693 247.384C214.693 247.384 224.592 266.581 233.553 268.934C233.553 268.934 189.11 283.063 212.452 308.42C212.452 308.42 195.834 312.4 191.91 307.877C187.987 303.355 177.719 236.334 177.719 236.334L180.893 179.82L196.393 180.522Z" fill="#CED7E7"/>
<path opacity="0.05" d="M196.393 180.522L200.686 187.586L201.62 199.904C201.62 199.904 204.61 210.406 206.851 213.485C209.093 216.565 210.026 224.718 210.026 224.718C210.026 224.718 210.959 232.325 212.078 233.952C213.196 235.578 214.693 247.384 214.693 247.384C214.693 247.384 224.592 266.581 233.553 268.934C233.553 268.934 189.11 283.063 212.452 308.42C212.452 308.42 195.834 312.4 191.91 307.877C187.987 303.355 177.719 236.334 177.719 236.334L180.893 179.82L196.393 180.522Z" fill="black"/>
<path d="M142.472 111.675C141.225 117.95 141.595 124.427 143.549 130.53L136.635 149.728C136.635 149.728 83.9762 121.292 88.4589 114.406C90.9977 110.501 91.3209 100.169 91.1157 91.9601C90.967 85.7217 90.5105 80.717 90.5105 80.717C90.5105 80.717 155.136 86.8808 146.534 101.188C144.588 104.44 143.215 107.985 142.472 111.675Z" fill="#FFA2A2"/>
<path opacity="0.1" d="M146.534 101.188C144.588 104.44 143.215 107.985 142.472 111.675C132.882 114.651 122.524 114.313 113.162 110.719C103.799 107.125 96.0088 100.496 91.1157 91.9601C90.967 85.7217 90.5105 80.717 90.5105 80.717C90.5105 80.717 155.12 86.8808 146.534 101.188Z" fill="black"/>
<path d="M172.677 70.3942C172.681 77.035 171.07 83.583 167.974 89.5061C164.879 95.4292 160.386 100.56 154.86 104.482C149.335 108.404 142.934 111.006 136.177 112.076C129.42 113.147 122.498 112.655 115.974 110.643C109.449 108.63 103.506 105.152 98.6284 100.492C93.7505 95.8326 90.075 90.122 87.9008 83.825C85.7266 77.528 85.1149 70.8223 86.1156 64.2528C87.1163 57.6834 89.7011 51.4357 93.6598 46.0176C94.2753 45.1785 94.9232 44.3593 95.6037 43.56C99.4808 38.9893 104.306 35.2604 109.765 32.6154C112.727 31.1782 115.851 30.0796 119.074 29.342C124.894 28.0046 130.936 27.8431 136.823 28.8676C142.71 29.8922 148.317 32.0807 153.295 35.2971C158.272 38.5136 162.515 42.6891 165.757 47.564C169 52.4388 171.174 57.9087 172.144 63.6334C172.506 65.8698 172.684 68.1305 172.677 70.3942Z" fill="#FFA2A2"/>
<path d="M189.854 243.921C189.203 247.294 190.018 253.458 191.254 259.731C191.305 260.005 191.362 260.278 191.418 260.552C191.475 260.825 191.557 261.248 191.629 261.591C192.198 264.288 192.818 266.959 193.424 269.387C194.029 271.815 194.573 273.894 195.034 275.606C195.732 278.168 196.209 279.779 196.209 279.779C196.209 279.779 196.27 281.361 196.352 283.879C196.399 285.331 196.45 287.102 196.501 289.057C196.501 289.625 196.537 290.202 196.552 290.799C196.578 291.838 196.604 292.918 196.629 294.022C196.629 294.381 196.629 294.739 196.655 295.102C196.655 296.291 196.701 297.505 196.722 298.714C196.747 300.375 196.768 302.037 196.778 303.649C196.778 304.266 196.778 304.872 196.778 305.469C196.778 307.012 196.778 308.489 196.778 309.847C196.722 313.703 196.563 316.613 196.224 317.454C196.106 317.742 195.998 318.056 195.896 318.384C195.451 319.928 195.129 321.503 194.932 323.095L194.06 322.404C192.393 321.07 190.741 319.707 189.064 318.384C186.276 316.119 183.317 314.06 180.211 312.225C180.001 312.106 179.791 311.986 179.575 311.872C179.001 311.549 178.416 311.245 177.821 310.957C176.596 310.357 175.339 309.819 174.057 309.345C168.133 307.156 161.788 306.36 155.356 306.494C152.792 307.444 151.125 308.126 151.125 308.126L147.863 309.081L147.319 309.24C143.785 310.285 138.815 311.768 137.025 312.384C134.133 313.379 109.016 318.449 109.016 318.449C106.721 319.056 104.378 319.472 102.01 319.692C97.6987 320.869 93.3101 321.76 88.8745 322.359C78.7948 323.609 68.5571 322.809 58.8135 320.011C58.5227 320.028 58.2309 320.019 57.9416 319.986C58.1211 319.986 58.2955 319.946 58.4545 319.916L57.8288 319.737L56.9722 319.479C55.5361 319.041 54.112 318.561 52.6998 318.041L51.8432 317.722C50.4755 317.212 49.1368 316.663 47.8272 316.076L46.9707 315.698C45.603 315.081 44.2643 314.429 42.9547 313.743C42.4828 313.504 42.0161 313.245 41.5545 313.001C40.1594 312.245 38.7917 311.452 37.4513 310.623C37.2256 308.748 37.1077 307.494 37.1077 307.494L35.1074 297.833L35.0048 297.336L33.5687 290.371L33.4661 289.873L30.3425 274.72L30.24 274.223L28.8038 267.258L28.7013 266.76L25.5367 251.617L25.4341 251.119L23.998 244.155L23.8954 243.657L20.7565 228.484L20.6539 227.987L19.2178 221.047L19.1152 220.549L18.5459 217.813L17.6893 213.669C17.6893 213.669 14.9556 209.878 11.8782 205.396L11.5346 204.898C10.6575 203.64 9.75479 202.331 8.87774 201.048C8.58538 200.625 8.30329 200.207 8.0212 199.794C7.59378 199.167 7.18004 198.556 6.77998 197.959L6.50301 197.546L6.4466 197.461C2.02541 190.825 4.98484 187.939 4.98484 187.939C4.98484 187.939 6.84153 185.502 9.23676 182.278C9.35473 182.114 9.47783 181.95 9.60605 181.78C10.6318 180.387 11.7602 178.865 12.8681 177.343L13.7246 176.159C14.0478 175.716 14.3657 175.273 14.6735 174.836C14.7966 174.671 14.9145 174.502 15.0274 174.338C17.3918 171.025 19.3409 168.134 19.7409 167.11C20.3667 165.493 24.357 160.712 28.332 156.518C31.4658 153.205 34.5842 150.26 35.9844 149.553C39.1593 147.927 40.4672 142.668 40.4672 142.668C40.4672 142.668 47.3759 140.32 48.3094 138.509C49.2428 136.699 62.3166 128.56 62.3166 128.56C62.3166 128.56 67.6046 125.256 69.7434 123.267C70.0462 123.006 70.3103 122.707 70.5281 122.376C71.2718 121.083 76.129 120.018 78.1036 119.635C78.6165 119.535 78.9345 119.481 78.9345 119.481C79.7317 118.076 80.7394 116.793 81.9247 115.675C82.73 114.983 83.7353 112.601 84.5815 110.292C85.4996 107.775 86.2126 105.352 86.2126 105.352C87.7102 100.462 90.6953 101.91 90.6953 101.91C90.6912 102.578 90.7565 103.244 90.8902 103.9C92.1365 109.869 98.9068 112.357 102.461 115.148C106.385 118.222 112.545 126.197 117.402 127.823C121.423 129.172 126.085 134.256 127.562 135.952L127.675 136.082C127.921 136.36 128.045 136.519 128.045 136.519C128.045 136.519 130.799 136.38 132.476 136.35H133.086C133.428 136.317 133.752 136.189 134.02 135.982C135.687 134.883 138.169 131.659 139.251 130.918C140.554 130.007 141.867 115.337 141.867 115.337L141.934 115.307C146.586 113.193 151.576 134.355 151.576 134.355C151.576 134.355 160.352 136.893 161.101 138.703C161.244 139.062 161.906 139.698 162.901 140.469C167.432 143.828 172.254 146.799 177.314 149.35C177.426 149.404 177.534 149.459 177.647 149.504C177.749 149.557 177.853 149.605 177.96 149.648C178.15 149.738 178.334 149.817 178.509 149.892C178.786 150.011 179.042 150.111 179.278 150.19L179.586 150.295C180.321 150.532 181.013 150.879 181.637 151.325C181.822 151.454 182.007 151.588 182.186 151.732C182.885 152.296 183.527 152.923 184.104 153.603C184.192 153.703 184.274 153.807 184.356 153.906C184.745 154.379 185.094 154.847 185.381 155.28C185.853 155.947 186.283 156.642 186.669 157.359C186.669 157.359 194.321 170.04 196.752 171.483C199.184 172.925 200.676 187.606 200.676 187.606L192.47 217.112C192.47 217.112 192.085 224.574 191.367 232.185C190.967 236.454 190.459 240.797 189.854 243.921Z" fill="#CED7E7"/>
<path d="M128.044 137.415C128.044 137.415 122.541 140.31 118.243 140.584C117.68 140.609 117.117 140.578 116.561 140.489C112.057 139.828 105.451 136.236 105.451 136.236L113.201 127.993L122.628 132.525L126.095 135.654L128.044 137.415Z" fill="#63667E"/>
<path opacity="0.1" d="M172.123 63.6334C171.928 63.9009 171.706 64.1492 171.461 64.3747C168.763 66.8621 163.973 65.8323 160.295 65.2552C157.1 64.7485 153.978 63.8733 150.997 62.6484C148.401 61.5738 145.288 60.2605 142.954 61.8027C142.057 62.3897 141.441 63.33 140.508 63.8473C139.574 64.3647 138.384 64.3995 137.282 64.4145C133.691 64.4145 130.101 64.4543 126.598 63.6682C121.372 62.4842 115.966 59.5043 110.996 61.4694C107.108 63.0016 105 67.1058 103.948 71.0509C103.436 72.9861 103.056 75.0307 101.897 76.6724C100.738 78.3141 98.4963 79.4782 96.5883 78.7071C93.7725 77.5679 93.3571 72.9314 89.9617 72.6975C86.2329 72.4438 86.2791 76.1799 87.3664 78.8812C88.9769 82.8611 91.0849 86.841 91.1773 90.99C87.1698 84.0281 85.2762 76.108 85.7155 68.1459C86.1549 60.1838 88.9091 52.505 93.6597 45.9977C94.4864 45.5011 95.1335 44.7674 95.5113 43.8983C95.5493 43.7808 95.5801 43.6612 95.6036 43.5401C95.8857 42.1521 95.0907 40.6945 95.0445 39.2419C94.865 35.6948 98.8246 33.2223 102.456 32.7746C104.872 32.4761 107.344 32.7049 109.765 32.6303C110.984 32.6043 112.197 32.4474 113.381 32.1627C115.423 31.5691 117.335 30.6163 119.023 29.3519C124.843 28.0145 130.884 27.8531 136.771 28.8776C142.659 29.9021 148.266 32.0906 153.243 35.3071C158.221 38.5235 162.463 42.699 165.706 47.5739C168.949 52.4488 171.122 57.9187 172.092 63.6434L172.123 63.6334Z" fill="black"/>
<path d="M173 60.7032C172.744 61.6872 172.211 62.5829 171.461 63.2901C168.763 65.7775 163.973 64.7428 160.295 64.1657C157.1 63.67 153.977 62.8014 150.996 61.5788C148.401 60.5092 145.288 59.1958 142.954 60.738C142.057 61.3251 141.441 62.2653 140.508 62.7827C139.574 63.3001 138.384 63.3349 137.282 63.3449C133.691 63.3697 130.101 63.3896 126.598 62.6036C121.371 61.4146 115.965 58.4397 110.995 60.3998C107.108 61.932 105 66.0412 103.948 69.9862C103.435 71.9214 103.056 73.9661 101.897 75.6028C100.738 77.2395 98.4962 78.4136 96.5882 77.6425C93.7724 76.5033 93.3569 71.8667 89.9615 71.6329C86.2328 71.3792 86.2789 75.1153 87.3663 77.8166C89.2742 82.5278 91.8695 87.2141 91.0181 92.2088C90.1718 92.2088 88.7716 92.1789 87.9407 92.159C88.587 91.0894 87.356 89.8159 86.1302 89.4527C84.9044 89.0896 83.4734 89.0945 82.5399 88.2289C81.6064 87.3633 81.6013 86.0251 81.6987 84.8261C81.9115 82.2636 82.5578 79.7526 83.6118 77.3937C84.2837 75.9013 85.1505 74.2845 84.6376 72.7224C84.3298 72.0143 83.9591 71.3335 83.5298 70.6877C82.463 68.6978 82.7143 66.2103 83.6272 64.1557C84.017 63.2802 84.2991 62.4544 84.6223 61.6683C85.0303 60.551 85.6208 59.5046 86.3712 58.569C87.5458 57.1512 88.6947 55.017 87.397 53.6987C87.0688 53.3654 87.7253 53.1365 87.515 52.7037C87.4778 52.6298 87.4519 52.551 87.4381 52.4699C87.3778 51.9458 87.5084 51.4179 87.8074 50.9774C87.8679 50.863 87.9347 50.7517 88.0074 50.6441C88.0664 50.5304 88.1332 50.4207 88.2074 50.3158C89.3432 48.4765 90.8526 46.8804 92.644 45.6245C93.757 44.8435 95.0597 44.0923 95.5008 42.8287C96.0137 41.3362 95.111 39.7493 95.0341 38.1722C94.8546 34.6252 98.8142 32.1527 102.445 31.705C106.077 31.2572 109.841 31.9985 113.38 31.0881C118.402 29.8046 121.93 25.5063 126.49 23.0936C128.985 21.7999 131.751 21.0763 134.578 20.978C137.404 20.8797 140.217 21.4093 142.8 22.5264C148.124 24.8845 152.14 29.6504 157.7 31.4413C159.67 32.0781 161.803 32.3318 163.578 33.3865C165.629 34.6103 166.876 36.7494 167.943 38.8588C169.568 42.0576 169.897 45.2713 171.02 48.6592C171.912 51.3456 173.149 54.8578 173.251 57.9521C173.309 58.8762 173.224 59.8034 173 60.7032Z" fill="#896363"/>
<g opacity="0.1">
<path opacity="0.1" d="M88.0641 54.4698C88.1462 54.1514 88.1542 53.8193 88.0877 53.4975C88.0212 53.1757 87.8817 52.8723 87.6794 52.6092C87.8128 52.9972 87.2332 53.2211 87.5512 53.5445C87.8045 53.8028 87.9817 54.1223 88.0641 54.4698Z" fill="black"/>
<path opacity="0.1" d="M87.664 51.47C87.6035 51.6436 87.5673 51.8243 87.5563 52.0073C87.6537 51.8481 87.7871 51.6839 87.664 51.47Z" fill="black"/>
<path opacity="0.1" d="M171.605 62.0763C168.902 64.5637 164.117 63.5339 160.429 62.9518C157.235 62.4531 154.116 61.5794 151.14 60.35C148.54 59.2754 145.432 57.9621 143.093 59.5043C142.2 60.0913 141.585 61.0316 140.646 61.5489C139.708 62.0663 138.523 62.1012 137.42 62.1111C133.83 62.1111 130.24 62.1559 126.731 61.3649C121.51 60.1809 116.104 57.2109 111.134 59.166C107.246 60.7032 105.138 64.8075 104.087 68.7525C103.574 70.6877 103.2 72.7323 102.035 74.374C100.871 76.0157 98.6297 77.1798 96.7269 76.4137C93.9111 75.2695 93.4956 70.6379 90.1002 70.4041C87.4485 70.2201 86.71 72.0607 86.8895 74.1054C87.0433 72.5433 87.9153 71.3394 90.1002 71.4886C93.4956 71.7225 93.9111 76.359 96.7269 77.4982C98.6297 78.2693 100.876 77.1102 102.035 75.4585C103.195 73.8069 103.574 71.7722 104.087 69.842C105.138 65.8969 107.246 61.7877 111.134 60.2555C116.104 58.2954 121.51 61.2505 126.731 62.4544C130.219 63.2454 133.84 63.2205 137.42 63.1956C138.523 63.1956 139.687 63.1658 140.646 62.6384C141.605 62.1111 142.185 61.1808 143.093 60.5888C145.432 59.0516 148.54 60.3649 151.14 61.4345C154.117 62.6633 157.236 63.5386 160.429 64.0413C164.117 64.6184 168.902 65.6581 171.605 63.1608C173.072 61.8027 173.513 59.8376 173.415 57.6885C173.333 59.3948 172.82 60.942 171.605 62.0763Z" fill="black"/>
<path opacity="0.1" d="M95.214 37.2719C95.1856 37.5196 95.1753 37.7689 95.1832 38.0181C95.2345 39.0528 95.6397 40.0876 95.7679 41.0975C95.9577 39.8588 95.3679 38.5653 95.214 37.2719Z" fill="black"/>
<path opacity="0.1" d="M84.7918 72.5682C84.834 72.7169 84.8666 72.8681 84.8892 73.0209C84.9724 72.5077 84.9391 71.9831 84.7918 71.4837C84.486 70.7731 84.1152 70.0904 83.6839 69.444C83.2986 68.7081 83.07 67.9044 83.012 67.0809C82.9077 68.2696 83.14 69.4634 83.6839 70.5335C84.1162 71.1776 84.487 71.8587 84.7918 72.5682Z" fill="black"/>
<path opacity="0.1" d="M91.1569 90.9651L88.1564 90.9204C88.2264 91.0962 88.2545 91.2851 88.2385 91.4729C88.2225 91.6607 88.1629 91.8426 88.0641 92.0049C88.9104 92.0049 90.3157 92.0347 91.1415 92.0546C91.285 91.2032 91.3348 90.3393 91.2902 89.4777C91.2786 89.9757 91.234 90.4726 91.1569 90.9651Z" fill="black"/>
<path opacity="0.1" d="M86.2485 88.2141C85.0226 87.8559 83.5968 87.8509 82.6838 86.9803C82.1464 86.4101 81.8434 85.6684 81.8324 84.8959C81.7555 86.0401 81.8324 87.2738 82.6838 88.0698C83.5968 88.9404 85.0226 88.9454 86.2485 89.3036C86.6473 89.4161 87.0182 89.6065 87.3384 89.8632C87.6586 90.1198 87.9212 90.4373 88.1103 90.796C88.6283 89.7662 87.4384 88.5573 86.2485 88.2141Z" fill="black"/>
</g>
<path opacity="0.1" d="M179.56 311.872C178.985 311.549 178.401 311.245 177.806 310.957C176.58 310.357 175.324 309.819 174.041 309.345C168.117 307.156 161.773 306.36 155.341 306.494C152.776 307.444 151.109 308.126 151.109 308.126L147.847 309.081L147.304 309.24C147.268 308.892 147.227 308.544 147.191 308.191C147.155 307.837 147.114 307.499 147.073 307.151C145.924 296.599 145.021 285.759 145.021 285.759V276.397V275.307L144.96 247.722L144.447 238.628L144.206 234.603L144.16 233.837L144.067 232.265L144.016 231.33C143.903 231.033 143.807 230.731 143.729 230.424C143.693 230.3 143.657 230.161 143.626 230.016C143.498 229.519 143.359 228.877 143.216 228.181C142.277 223.604 141.103 215.888 141.031 214.321C140.939 212.231 139.072 199.735 139.072 199.735C138.882 192.854 132.917 179.9 131.414 177.457C129.911 175.015 128.234 160.339 128.798 159.548C129.091 159.125 129.28 156.623 129.398 154.314C129.398 154.051 129.424 153.792 129.434 153.538C129.511 151.733 129.547 150.225 129.547 150.225L135.415 149.101L136.989 148.802L137.112 148.777L137.164 148.877C137.333 149.18 137.861 150.151 138.482 151.424C138.554 151.558 138.62 151.703 138.692 151.847C138.723 151.917 138.759 151.986 138.795 152.056C139.944 154.494 141.272 157.702 141.216 159.548C141.123 162.811 144.955 170.692 144.955 170.692C145.324 172.502 153.448 190.521 153.448 190.521C153.448 190.521 160.08 208.182 159.706 211.082C159.331 213.982 162.88 233.18 162.88 233.18L166.522 252.925C168.292 256.816 170.625 265.78 170.625 265.78L171.512 270.865L171.682 271.835L174.046 285.401L175.205 292.047C175.205 292.047 175.693 295.58 176.431 299.51C176.493 299.863 176.565 300.221 176.636 300.579C177.091 303.166 177.738 305.718 178.57 308.216C178.983 309.412 179.313 310.633 179.56 311.872Z" fill="black"/>
<path d="M180.196 312.225C179.986 312.106 179.775 311.986 179.56 311.872C178.985 311.549 178.401 311.245 177.806 310.957C176.58 310.357 175.324 309.819 174.041 309.345C168.117 307.156 161.773 306.36 155.341 306.494C152.776 307.444 151.109 308.126 151.109 308.126L147.847 309.081C147.806 308.733 147.77 308.385 147.729 308.031C147.688 307.678 147.658 307.395 147.627 307.076C146.478 296.549 145.575 285.759 145.575 285.759V276.307V275.217L145.514 247.702L145.001 239.016L144.898 237.215L144.826 235.996L144.734 234.384L144.642 232.747L144.575 231.568V231.31C144.575 231.285 144.575 231.255 144.539 231.225C144.442 230.956 144.324 230.549 144.196 230.031L144.134 229.782C144.108 229.668 144.078 229.544 144.052 229.419C143.088 225.176 141.672 216.027 141.595 214.311C141.503 212.221 139.636 199.725 139.636 199.725C139.446 192.844 133.481 179.89 131.978 177.447C130.476 175.005 128.803 160.329 129.363 159.538C129.686 159.04 129.875 156.021 129.999 153.528C129.999 153.329 129.999 153.135 129.999 152.951C130.065 151.414 130.091 150.215 130.091 150.215L135.548 149.17L136.933 148.907L137.148 148.867L137.661 148.767C137.661 148.767 138.333 149.971 139.138 151.628L139.241 151.837C140.415 154.294 141.805 157.638 141.764 159.538C141.672 162.801 145.503 170.682 145.503 170.682C145.873 172.492 153.997 190.511 153.997 190.511C153.997 190.511 160.629 208.172 160.254 211.072C159.88 213.972 163.429 233.17 163.429 233.17L167.071 252.915C168.84 256.806 171.174 265.77 171.174 265.77L172 270.506L172.169 271.466L174.031 282.172L175.749 292.037C175.749 292.037 176.262 295.555 176.97 299.5C177.036 299.858 177.103 300.216 177.175 300.579C177.629 303.178 178.275 305.741 179.109 308.25C179.563 309.55 179.927 310.878 180.196 312.225Z" fill="#63667E"/>
<path d="M175.57 56.7234C175.57 56.7234 173.61 59.171 171.841 59.171C170.071 59.171 163.183 58.8974 159.593 57.8129C156.002 56.7284 138.4 55.9075 138.4 55.9075C138.4 55.9075 113.473 55.9971 112.632 55.1812C111.791 54.3653 97.132 50.0173 95.6395 50.2909C95.3266 50.3506 94.5624 50.48 93.5417 50.6442L92.3723 50.8282C90.6028 51.1018 88.3922 51.4202 86.3714 51.654C83.8736 51.9376 81.6784 52.0819 80.9808 51.8331V49.7487C80.9808 49.7487 83.8736 45.6693 84.0582 44.5002C84.2429 43.3312 86.674 26.3819 93.0237 20.3176C95.6469 15.4538 99.8921 11.5958 105.067 9.37302C113.658 5.74637 122.249 2.67193 122.249 2.67193L123.751 2.46299L128.598 1.76651C128.746 1.62425 128.905 1.49444 129.075 1.37848C130.419 0.383512 134.492 -1.78054 139.8 2.87092L140.739 4.32358C140.739 4.32358 157.074 8.03479 164.635 20.9843C172.195 33.9337 172.574 46.6145 173.133 52.4102C173.133 52.4102 172.759 54.042 173.508 54.6738C173.779 54.906 174.037 55.1518 174.282 55.41C174.349 55.4747 174.416 55.5394 174.477 55.609C174.692 55.818 174.893 56.0369 175.057 56.216C175.076 56.2299 175.094 56.2467 175.108 56.2657C175.148 56.3128 175.191 56.3577 175.236 56.4L175.57 56.7234Z" fill="#FED253"/>
<path opacity="0.05" d="M175.57 56.7234C175.57 56.7234 173.61 59.171 171.841 59.171C170.071 59.171 163.183 58.8973 159.593 57.8128C156.003 56.7283 138.4 55.9075 138.4 55.9075C138.4 55.9075 113.473 55.997 112.632 55.1812C111.791 54.3653 97.132 50.0173 95.6395 50.2909C95.3266 50.3506 94.5624 50.4799 93.5418 50.6441L93.275 49.0522L93.2084 48.6592C93.2084 48.6592 121.5 42.7739 140.359 45.8583C159.218 48.9427 173.133 52.3754 173.133 52.3754C173.133 52.3754 172.759 54.0071 173.508 54.6389C173.779 54.8712 174.037 55.1169 174.282 55.3752C174.349 55.4398 174.416 55.5045 174.477 55.5742C174.693 55.7831 174.893 56.002 175.057 56.1811C175.076 56.1951 175.094 56.2118 175.108 56.2308C175.148 56.2779 175.191 56.3227 175.236 56.3652L175.57 56.7234Z" fill="black"/>
<path opacity="0.1" d="M173 60.7032C169.507 60.9669 163.07 60.1411 160.254 59.7381C159.454 59.6237 158.67 59.4844 157.88 59.3153C154.859 58.6785 145.57 56.8925 139.928 57.7184C133.112 58.7133 113.878 56.9025 113.878 56.9025C113.878 56.9025 102.02 54.5494 97.2552 52.649C95.5062 51.9476 92.5826 51.7287 89.6745 52.0769C88.9329 52.1666 88.1967 52.2945 87.4691 52.46C83.4992 53.3704 80.15 55.4449 80.7296 58.982C80.5077 58.724 80.3021 58.4532 80.1141 58.1711C79.8628 54.9374 80.8988 53.0122 82.3349 51.8779L82.6734 51.7436C84.4278 51.2601 86.2131 50.8895 88.0178 50.6342C88.2999 50.5894 88.5923 50.5496 88.8898 50.5148C93.9931 49.8482 101.374 49.6989 107.6 52.7386C107.6 52.7386 113.386 55.3702 117.309 55.3702C121.233 55.3702 153.161 55.6439 160.634 57.7233C162.122 58.1402 163.639 58.4511 165.173 58.6536C167.898 58.9943 170.666 58.7411 173.277 57.9124C173.33 58.8509 173.237 59.7918 173 60.7032Z" fill="black"/>
<path opacity="0.1" d="M175.57 56.7234C175.57 56.7234 173.61 59.171 171.841 59.171C170.071 59.171 163.183 58.8974 159.593 57.8129C156.002 56.7284 138.4 55.9075 138.4 55.9075C138.4 55.9075 113.473 55.9971 112.632 55.1812C111.791 54.3653 97.132 50.0174 95.6395 50.291C95.3266 50.3507 94.5624 50.48 93.5417 50.6442L92.3723 50.8282C90.3412 50.8182 88.3195 51.0964 86.3714 51.6541C83.8736 51.9376 81.6784 52.0819 80.9808 51.8332V51.4203C81.5186 51.1175 82.0793 50.8548 82.658 50.6342C86.1191 49.6942 89.6831 49.1564 93.275 49.0323C97.7526 48.8731 102.989 49.3806 107.59 51.6292C107.59 51.6292 113.376 54.2609 117.299 54.2609C121.223 54.2609 153.151 54.5295 160.624 56.614C162.112 57.0269 163.629 57.3362 165.163 57.5393C168.529 57.9507 171.946 57.4746 175.057 56.1613C175.076 56.1752 175.094 56.192 175.108 56.211C175.148 56.258 175.191 56.3029 175.236 56.3453L175.57 56.7234Z" fill="black"/>
<path d="M80.8014 58.8973C80.8014 58.8973 74.544 54.2757 82.6684 51.1963C82.6684 51.1963 96.8603 46.9428 107.6 52.1913C107.6 52.1913 113.386 54.813 117.31 54.813C121.233 54.813 153.161 55.0866 160.634 57.1711C162.122 57.5846 163.639 57.8938 165.173 58.0964C169.149 58.5639 173.176 57.8216 176.698 55.9721C177.211 55.6985 177.673 55.5592 177.811 55.7184C178.278 56.2656 177.908 59.4346 173.8 60.0664C170.595 60.5639 163.311 59.6236 160.249 59.1908C159.454 59.0764 158.664 58.9321 157.88 58.768C154.859 58.1312 145.57 56.3452 139.903 57.1711C133.091 58.166 113.853 56.3552 113.853 56.3552C113.853 56.3552 101.999 54.0021 97.2347 52.0967C92.4698 50.1914 79.0268 51.8331 80.8014 58.8973Z" fill="#FED253"/>
<path opacity="0.1" d="M72.4923 135.704C73.0514 136.609 91.4439 160.08 96.3011 159.429C101.158 158.777 72.4923 135.704 72.4923 135.704Z" fill="black"/>
<path opacity="0.1" d="M134.117 157.155C134.117 157.155 138.6 161.324 137.943 162.951C137.287 164.578 134.117 157.155 134.117 157.155Z" fill="black"/>
<path opacity="0.1" d="M135.61 255.055C136.261 256.865 141.677 268.641 142.893 269.273C144.108 269.904 135.61 255.055 135.61 255.055Z" fill="black"/>
<path opacity="0.1" d="M198.542 206.694C198.352 207.326 193.685 211.042 194.711 212.4C195.737 213.759 198.542 206.694 198.542 206.694Z" fill="black"/>
<path opacity="0.1" d="M162.311 239.747C162.219 240.205 161.285 249.697 163.06 251.523C164.835 253.348 162.311 239.747 162.311 239.747Z" fill="black"/>
<path opacity="0.1" d="M210.154 289.058C208.8 289.789 207.4 290.495 205.974 291.172C204.435 291.898 202.897 292.59 201.327 293.241C200.702 293.505 200.076 293.764 199.455 294.013C198.512 294.391 197.578 294.754 196.655 295.102C193.849 296.167 191.146 297.092 188.741 297.873C187.807 298.176 186.915 298.455 186.084 298.714C181.899 300.002 179.119 300.704 179.119 300.704C178.484 300.572 177.834 300.52 177.185 300.549C177.006 300.549 176.821 300.549 176.631 300.549C175.763 300.611 174.898 300.717 174.041 300.868C168.312 301.863 160.218 304.654 155.341 306.479C152.776 307.43 151.109 308.111 151.109 308.111L147.847 309.066L147.304 309.226C143.77 310.27 138.8 311.753 137.01 312.37C134.117 313.365 109 318.434 109 318.434C106.706 319.041 104.362 319.458 101.994 319.678C96.1599 320.197 90.2956 320.327 84.4429 320.066C78.5651 320.434 69.0559 319.18 63.5218 318.334L62.6396 318.2C60.5008 317.862 59.1416 317.618 59.1416 317.618L59.8597 316.658L74.585 296.953L74.6722 296.833L88.3922 278.481L88.9051 277.815L90.1514 276.148C90.1514 276.148 90.9003 275.153 93.7828 275.088C94.1213 275.088 94.4906 275.088 94.8958 275.088C97.317 275.277 99.7057 275.75 102.01 276.496L102.676 276.69C112.611 279.451 127.967 278.76 127.967 278.76C127.967 278.76 137.523 277.267 145.032 276.372L145.591 276.302C148.044 275.966 150.515 275.758 152.992 275.68C157.567 275.77 167.466 273.417 167.466 273.417C169.594 272.974 170.492 272.601 171.692 271.77C171.851 271.661 172.02 271.541 172.205 271.412C172.718 271.039 173.308 270.581 174.067 270.014C175.452 268.984 177.395 267.586 180.452 265.626C180.719 265.457 181.001 265.288 181.304 265.129C181.606 264.97 181.991 264.756 182.36 264.577C185.321 263.217 188.442 262.214 191.654 261.592C194.319 261.036 197.022 260.675 199.742 260.512H200.148C207.841 260.114 215.699 261.393 220.294 265.586C221.098 266.323 221.798 267.16 222.377 268.074C222.658 268.508 222.908 268.96 223.125 269.427C223.545 270.318 223.856 271.253 224.054 272.213C224.091 272.392 224.122 272.571 224.146 272.75C224.146 272.805 224.146 272.855 224.146 272.909C224.146 273.054 224.177 273.198 224.187 273.342C224.598 279.297 218.227 284.68 210.154 289.058Z" fill="black"/>
<path d="M59.1416 316.548C59.1416 316.548 75.7595 319.533 84.4429 318.991C84.4429 318.991 100.409 319.807 109 317.364C109 317.364 134.132 312.29 137.01 311.295C139.887 310.3 151.109 307.037 151.109 307.037C151.109 307.037 172.959 298.161 179.119 299.609C179.119 299.609 227.485 287.476 224.028 271.084C220.571 254.691 190.044 258.408 180.432 264.562C170.82 270.715 172.225 271.357 167.456 272.352C167.456 272.352 157.557 274.705 152.982 274.616C148.406 274.526 127.957 277.695 127.957 277.695C127.957 277.695 111.898 278.421 102.005 275.432C92.1107 272.442 90.1463 275.068 90.1463 275.068L59.1416 316.548Z" fill="#FFA2A2"/>
<path opacity="0.1" d="M95.1778 274.004C95.1804 274.023 95.1804 274.044 95.1778 274.063C95.142 274.433 95.0433 274.795 94.8855 275.133C92.916 279.819 81.7348 292.46 81.7348 292.46C81.225 293.962 80.6098 295.428 79.8935 296.848C78.3528 299.884 76.5783 302.802 74.585 305.579C71.6303 309.733 68.4044 313.699 64.9271 317.454H64.9015C64.459 317.772 63.9983 318.066 63.5218 318.334C62.3164 319.031 60.5059 319.891 58.798 319.996C58.5071 320.013 58.2153 320.004 57.926 319.971C58.1055 319.971 58.2799 319.931 58.4389 319.901L57.8132 319.722L56.9567 319.464C55.5205 319.026 54.0964 318.547 52.6842 318.026L51.8277 317.707C50.4599 317.197 49.1213 316.648 47.8117 316.061L46.9551 315.683C45.5874 315.066 44.2487 314.414 42.9391 313.728C42.4673 313.489 42.0005 313.23 41.5389 312.986C40.1438 312.23 38.7761 311.438 37.4357 310.608C36.0133 309.73 34.6216 308.812 33.2608 307.857C32.235 306.012 31.3887 304.375 30.9271 303.494C30.0859 301.858 30.0141 299.515 30.1167 297.818C30.1167 297.644 30.1167 297.48 30.1475 297.321C30.2347 296.256 30.368 295.525 30.368 295.525C29.608 294.539 28.9224 293.502 28.3164 292.42C27.9683 291.884 27.7703 291.268 27.742 290.634C27.7652 290.38 27.7408 290.124 27.6702 289.878C27.2752 288.306 25.5775 285.605 24.0081 283.909C22.8387 282.66 22.7668 277.993 22.8797 274.685C22.9464 272.695 23.0746 271.233 23.0746 271.233C22.8448 271.089 22.6728 270.873 22.5873 270.621C22.1749 269.532 21.896 268.4 21.7564 267.248C21.7564 267.084 21.7103 266.919 21.6846 266.75C21.3564 264.467 21.2076 262.174 21.2076 262.174C17.4122 259.492 15.6068 255.308 14.7656 251.577L14.6579 251.08C14.196 248.786 13.9998 246.45 14.0732 244.115C14.0732 243.891 14.0732 243.722 14.0732 243.617C14.0732 243.513 14.0732 243.493 14.0732 243.493C14.0732 243.493 14.5759 232.713 15.9812 228.504C16.0376 228.325 16.0992 228.161 16.1607 228.006C16.2643 227.742 16.3985 227.49 16.5608 227.255C17.0737 226.594 17.4378 225.345 17.7404 223.867C17.9507 222.843 18.1251 221.703 18.2533 220.569C18.3713 219.624 18.4636 218.684 18.5354 217.813C18.7355 215.485 18.797 213.669 18.797 213.669L17.8482 209.132C17.5866 207.893 17.3865 206.645 17.2481 205.396C17.2481 205.232 17.207 205.068 17.1865 204.898C16.9466 202.592 16.9037 200.271 17.0583 197.959C17.0583 197.789 17.0583 197.625 17.0891 197.461C17.4895 192.193 18.9094 187.046 21.2743 182.288L21.5308 181.79C21.8727 181.127 22.2317 180.475 22.6078 179.835C22.8797 179.363 23.1669 178.895 23.4644 178.432C24.253 177.193 25.109 175.996 26.0289 174.845C26.1622 174.676 26.3007 174.512 26.4392 174.348C28.0396 172.423 29.8183 170.645 31.7528 169.035C36.9331 164.717 41.6877 162.841 46.0063 162.697C64.8912 162.05 75.4826 194.446 77.1956 200.123C77.3598 200.67 77.4418 200.968 77.4418 200.968C77.4418 200.968 85.0943 208.396 82.8529 211.654C82.4183 212.371 82.1538 213.174 82.0784 214.002C81.4629 218.385 83.2273 225.604 83.2273 225.604C83.2273 225.604 83.8531 227.594 85.679 232.359L86.2175 233.752C87.3613 236.737 87.628 241.747 86.9715 246.234C86.3406 250.532 84.8583 254.333 82.4836 255.308C77.6265 257.298 78.9343 259.288 80.0525 260.925C80.7169 262.098 81.2713 263.327 81.7091 264.596C82.4118 266.432 83.0632 268.362 83.3094 269.113C83.3812 269.322 83.4171 269.437 83.4171 269.437C84.0974 269.181 84.8042 268.998 85.5251 268.89C86.4432 268.765 87.351 268.855 87.5254 269.616C87.6177 270.024 88.146 270.506 88.8897 270.989C91.0952 272.461 95.1778 274.004 95.1778 274.004Z" fill="black"/>
<path d="M94.0597 274.004C94.0284 274.382 93.9295 274.753 93.7674 275.098C91.8081 279.79 80.6167 292.46 80.6167 292.46C80.1047 293.961 79.4895 295.427 78.7754 296.848C77.5376 299.3 76.1379 301.671 74.585 303.947C71.3698 308.652 67.8078 313.124 63.927 317.33L63.809 317.454C63.809 317.454 63.3576 317.787 62.6396 318.215C61.3565 319.009 59.9427 319.585 58.4595 319.916L57.8337 319.737L56.9772 319.479C55.5411 319.041 54.1169 318.562 52.7048 318.041L51.8482 317.723C50.4805 317.212 49.1418 316.663 47.8322 316.076L46.9757 315.698C45.6079 315.081 44.2693 314.429 42.9597 313.743C42.4878 313.504 42.0211 313.245 41.5595 313.001C40.1644 312.245 38.7966 311.453 37.4563 310.623C36.0338 309.745 34.6422 308.828 33.2813 307.872C32.6521 307.435 32.0298 306.985 31.4143 306.524C30.7219 305.251 30.168 304.176 29.8243 303.509C28.9832 301.873 28.9114 299.53 29.014 297.833C29.014 297.659 29.014 297.495 29.0447 297.336C29.1319 296.271 29.2653 295.54 29.2653 295.54C29.2653 295.54 28.8498 294.998 28.3472 294.261C28.0651 293.853 27.7625 293.381 27.4907 292.913C26.9778 292.038 26.5777 291.152 26.6546 290.65C26.665 290.564 26.665 290.477 26.6546 290.391C26.6469 290.223 26.6212 290.056 26.5777 289.893C26.1828 288.321 24.4799 285.62 22.9105 283.924C21.7411 282.675 21.6693 278.009 21.777 274.7C21.777 274.531 21.777 274.367 21.777 274.203C21.8488 272.486 21.9565 271.248 21.9565 271.248C21.3769 271.004 20.9307 269.198 20.6435 267.268L20.5665 266.77C20.2383 264.487 20.0895 262.194 20.0895 262.194C16.2941 259.512 14.4887 255.328 13.6527 251.597C13.0702 248.984 12.846 246.308 12.9859 243.637C12.9859 243.558 12.9859 243.513 12.9859 243.513C12.9859 243.513 13.427 232.678 14.8323 228.464C14.8887 228.285 14.9503 228.121 15.0118 227.967C15.1349 227.709 15.2881 227.465 15.4683 227.24C16.2479 226.186 16.766 223.649 17.1045 221.052L17.166 220.554C17.5917 217.072 17.7097 213.654 17.7097 213.654L16.7557 209.117C16.4958 207.873 16.2958 206.628 16.1556 205.381C16.13 205.217 16.1146 205.048 16.0941 204.884C15.8542 202.578 15.8113 200.256 15.9658 197.944C15.9658 197.775 15.9658 197.61 16.0017 197.446C16.3998 192.178 17.8197 187.03 20.187 182.273C20.269 182.104 20.3511 181.94 20.4434 181.776C21.1029 180.483 21.8358 179.228 22.6386 178.015C22.9156 177.592 23.1977 177.174 23.4952 176.761C23.9619 176.104 24.4492 175.458 24.9569 174.831L25.3673 174.333C26.954 172.416 28.7171 170.643 30.6347 169.035C36.2766 164.344 41.4056 162.533 46.0217 162.697C64.2039 163.329 74.4106 194.561 76.0878 200.123C76.2519 200.67 76.334 200.968 76.334 200.968C76.334 200.968 83.9915 208.396 81.7502 211.654C81.3156 212.372 81.0511 213.174 80.9757 214.002C80.3551 218.385 82.1246 225.604 82.1246 225.604C82.1246 225.604 82.7503 227.594 84.5763 232.36C84.7404 232.802 84.9199 233.265 85.0892 233.753C86.2329 236.737 86.4996 241.747 85.8431 246.234C85.2122 250.538 83.7351 254.333 81.3553 255.308C76.5032 257.298 77.806 259.288 78.9292 260.925C79.5937 262.098 80.1481 263.327 80.5859 264.596C81.4732 266.94 82.2887 269.437 82.2887 269.437C82.6244 269.311 82.9668 269.203 83.3145 269.114C84.0281 268.886 84.7837 268.81 85.5303 268.89C85.7368 268.905 85.933 268.984 86.0906 269.114C86.2482 269.245 86.3591 269.421 86.4073 269.616C86.5458 270.213 87.6075 270.954 88.8949 271.656C90.5664 272.538 92.2912 273.322 94.0597 274.004Z" fill="#CED7E7"/>
<path opacity="0.1" d="M127.567 137.032L126.767 138.136C126.767 138.136 120.412 133.793 117.802 131.619C115.191 129.445 109.026 139.405 104.169 142.121C99.3118 144.837 91.1003 145.564 91.1003 145.564C91.1003 145.564 84.7506 139.405 84.9455 137.604C85.1404 135.803 81.9605 135.251 81.7707 133.982C81.5809 132.714 80.4628 129.092 78.9703 127.281C78.1804 126.326 78.0676 123.336 78.1394 120.734C78.6523 120.635 78.9703 120.58 78.9703 120.58C79.7674 119.175 80.7751 117.893 81.9605 116.774C83.6428 115.327 86.2534 106.452 86.2534 106.452C87.7459 101.561 90.731 103.009 90.731 103.009C90.731 110.436 98.5784 113.153 102.497 116.232C106.415 119.312 112.58 127.281 117.438 128.913C121.423 130.231 126.085 135.33 127.567 137.032Z" fill="black"/>
<path d="M127.567 135.942L126.767 137.052C126.767 137.052 120.387 132.719 117.776 130.53C115.165 128.341 109 138.315 104.143 141.032C99.2861 143.748 91.0746 144.479 91.0746 144.479C91.0746 144.479 84.7249 138.315 84.9198 136.52C85.1147 134.724 81.9347 134.166 81.7449 132.893C81.5552 131.619 80.437 128.003 78.9445 126.192C78.1546 125.237 78.0418 122.247 78.1136 119.645L78.9445 119.496C79.7417 118.091 80.7494 116.808 81.9347 115.69C83.617 114.237 86.2277 105.367 86.2277 105.367C87.7202 100.477 90.7053 101.92 90.7053 101.92C90.7053 109.347 98.5526 112.068 102.471 115.148C106.39 118.227 112.555 126.192 117.412 127.824C121.423 129.162 126.085 134.241 127.567 135.942Z" fill="#CED7E7"/>
<path opacity="0.1" d="M128.044 137.415C128.044 137.415 122.541 140.31 118.243 140.584C117.68 140.609 117.116 140.578 116.561 140.489C116.561 140.489 121.305 137.052 125.711 136.35L128.044 137.415Z" fill="black"/>
<path opacity="0.1" d="M139.251 152.175C139.251 152.175 132.312 149.554 130.019 153.499C130.096 151.688 130.127 150.185 130.127 150.185L137.692 148.733C137.692 148.733 138.42 150.041 139.272 151.802C139.251 152.036 139.251 152.175 139.251 152.175Z" fill="black"/>
<path d="M116.561 140.489C116.561 140.489 124.875 135.649 128.87 136.057C133.06 136.48 141.18 136.778 141.18 136.778C141.18 136.778 138.379 142.937 138.754 144.206C139.128 145.474 139.22 151.633 139.22 151.633C139.22 151.633 130.819 148.464 129.419 154.349C129.419 154.349 124.844 147.738 121.761 145.743C119.716 144.31 117.954 142.53 116.561 140.489Z" fill="#63667E"/>
<path opacity="0.1" d="M163.527 146.111C161.101 146.111 152.51 140.853 150.643 137.415C148.776 133.977 146.16 137.773 143.734 139.047C142.195 139.863 136.097 138.156 132.809 136.917C134.476 135.818 138.169 132.724 139.251 131.982C140.554 131.072 141.867 116.401 141.867 116.401C146.534 114.048 151.576 135.42 151.576 135.42C151.576 135.42 160.357 137.957 161.101 139.768C161.244 140.126 161.906 140.763 162.901 141.534C163.927 144.041 164.491 146.111 163.527 146.111Z" fill="black"/>
<path d="M163.527 145.022C161.101 145.022 152.51 139.768 150.643 136.331C148.776 132.893 146.16 136.689 143.734 137.957C142.195 138.773 137.307 137.196 134.02 135.967C135.687 134.873 138.169 131.649 139.251 130.903C140.554 129.998 141.867 115.327 141.867 115.327C146.534 112.974 151.576 134.346 151.576 134.346C151.576 134.346 160.357 136.883 161.101 138.694C161.244 139.052 161.906 139.689 162.901 140.46C163.927 142.952 164.491 145.022 163.527 145.022Z" fill="#CED7E7"/>
<path d="M196.706 303.703L277.903 238.036C278.713 237.372 279.746 237.018 280.806 237.041L311.098 237.812C311.098 237.812 313.196 239.304 310.118 242.568L233.522 303.534C232.694 304.191 231.667 304.565 230.598 304.599L197.475 305.664C197.238 305.671 197.003 305.606 196.805 305.478C196.607 305.35 196.455 305.165 196.371 304.949C196.286 304.734 196.273 304.498 196.333 304.274C196.393 304.051 196.524 303.851 196.706 303.703Z" fill="#6C63FF"/>
<path d="M235.984 295.624C235.984 295.624 253.72 320.26 273.426 297.346C293.131 274.432 287.433 262.393 281.457 261.756C275.482 261.119 241.862 286.207 235.984 295.624Z" fill="#FFA2A2"/>
<path opacity="0.1" d="M338.22 65.7279C338.22 65.7279 348.55 46.2813 360.787 56.3105C360.787 56.3105 363.449 57.2508 363.249 59.9869C363.249 59.9869 362.224 59.4397 361.408 61.5291C361.111 62.2684 360.725 62.9713 360.259 63.6235C359.628 64.5068 358.72 65.1683 357.669 65.509C357.669 65.509 352.191 69.4888 342.041 66.4194C342.041 66.4194 339.174 66.8223 338.712 66.4741L342.046 64.1061C342.046 64.1061 343.739 66.5487 346.216 66.8273C346.216 66.8273 342.051 64.2852 342.523 63.733C342.621 63.6235 344.349 62.5589 344.349 62.5589C344.349 62.5589 347.314 66.7875 351.155 67.1009C351.155 67.1009 345.775 64.718 345 62.1261L347.709 60.6735C347.709 60.6735 350.617 65.2901 354.981 65.8075C354.981 65.8075 349.442 63.131 348.314 60.3899L351.176 59.3054C351.176 59.3054 354.104 63.7579 357.736 64.1658C357.736 64.1658 351.658 60.4446 351.848 59.1014C351.848 59.1014 354.54 58.2607 355.366 58.3701C355.366 58.3701 357.541 61.5192 359.674 61.5739C359.674 61.5739 355.884 58.6686 356.135 58.2209C356.135 58.2209 359.936 58.0318 361.921 58.9223C361.921 58.9223 359.09 57.3951 356.13 57.6438C356.947 56.7432 358.016 56.0931 359.208 55.7733C359.208 55.7733 357.115 54.9375 355.197 57.6985C355.197 57.6985 352.237 57.9622 351.873 58.2806C351.873 58.2806 353.366 55.2957 355.212 54.0271C355.212 54.0271 352.463 54.4947 351.109 58.5442L348.201 59.589C348.201 59.589 349.965 55.5444 351.519 54.2957C351.519 54.2957 348.796 55.1912 347.493 59.9073L344.821 61.3102C344.821 61.3102 346.067 57.7085 347.488 55.9573C347.488 55.9573 345.144 57.3204 344.072 61.7381L342.4 62.8773C342.4 62.8773 343.359 60.2655 343.703 59.5392C344.046 58.8129 343.877 58.6636 343.877 58.6636C342.715 59.997 341.958 61.618 341.692 63.3449C341.692 63.3449 338.399 65.907 338.22 65.7279Z" fill="#6C63FF"/>
</svg>
